# xmcd CD database file
#
# Track frame offsets:
#	150
#	13499
#	26648
#	40787
#	51229
#	63707
#	77121
#	92873
#	106631
#	118085
#	131758
#	144189
#	157407
#	171746
#
# Disc length: 2453 seconds
#
# Revision: 0
# Processed by: cddbd v1.5.2PL0 Copyright (c) Steve Scherf et al.
# Submitted via: CDex 1.51
#
DISCID=cd09930e
DTITLE=Florian Fesl - Lass uns wieder Freunde sein
DYEAR=1900
DGENRE=Volkstümlich
TTITLE0=Servus liebe Freunde
TTITLE1=A Busserl
TTITLE2=Lass uns wieder Freunde sein
TTITLE3=Die Musi is a Vagabund
TTITLE4=Bombig, bärig, richtig fesch
TTITLE5=Wenn a echter Bayer Musi macht
TTITLE6=Ein Kind der Berge
TTITLE7=Die Tradition hat Hochsaison
TTITLE8=Schunkeln is g´müatlich
TTITLE9=Das Geheimnis der roten Berge
TTITLE10=Küssen muasst sie selber
TTITLE11=Dich hat der Himmel für mich bestellt 
TTITLE12=Wenn Nachts die Sonne scheint
TTITLE13=I steh auf d´Schickaria
EXTD=
EXTT0=
EXTT1=
EXTT2=
EXTT3=
EXTT4=
EXTT5=
EXTT6=
EXTT7=
EXTT8=
EXTT9=
EXTT10=
EXTT11=
EXTT12=
EXTT13=
PLAYORDER=
